<svg version="1.2" xmlns="http://www.w3.org/2000/svg" viewBox="0 0 20 20" width="20" height="20">
	<title>icon-checkbox-svg</title>
	<style>
		.s0 { fill: #2a59c1 } 
	</style>
	<path fill-rule="evenodd" class="s0" d="m20 10c0 5.5-4.5 10-10 10-5.5 0-10-4.5-10-10 0-5.5 4.5-10 10-10 5.5 0 10 4.5 10 10zm-1.6 0c0-4.7-3.7-8.4-8.4-8.4-4.7 0-8.4 3.7-8.4 8.4 0 4.7 3.7 8.4 8.4 8.4 4.7 0 8.4-3.7 8.4-8.4zm-4-3.2c0.3 0.3 0.3 0.8 0 1.1l-5.2 5.3c-0.3 0.3-0.8 0.3-1.1 0l-2.5-2.5c-0.3-0.3-0.3-0.8 0-1.1 0.3-0.3 0.8-0.3 1.1 0l1.9 1.9 4.7-4.7c0.3-0.3 0.8-0.3 1.1 0z"/>
</svg>