<svg id="Layer_1" enable-background="new 0 0 87 56" height="56" viewBox="0 0 87 56" width="87" xmlns="http://www.w3.org/2000/svg"><g><path d="m86 52.636c0 1.305-1.16 2.364-2.593 2.364h-79.814c-1.432 0-2.593-1.059-2.593-2.364v-49.271c0-1.306 1.161-2.365 2.593-2.365h79.814c1.433 0 2.593 1.059 2.593 2.365z" fill="#f1f2f2"/><g><g><g><circle cx="27.434" cy="28.001" fill="#ed1c2e" r="23.934"/><g><path d="m59.566 4.066c-6.187 0-11.82 2.346-16.068 6.196-.863.784-1.671 1.632-2.415 2.533h4.835c.661.804 1.27 1.649 1.825 2.535h-8.485c-.508.814-.97 1.66-1.379 2.535h11.242c.384.821.723 1.666 1.014 2.533h-13.27c-.277.826-.509 1.671-.695 2.534h14.659c.353 1.634.538 3.329.538 5.069 0 2.657-.434 5.215-1.232 7.603h-13.27c.291.869.629 1.715 1.013 2.535h11.243c-.41.875-.87 1.721-1.38 2.534h-8.483c.553.884 1.163 1.729 1.825 2.533h4.834c-.743.901-1.551 1.75-2.418 2.534 4.248 3.849 9.882 6.193 16.067 6.193 13.218.001 23.934-10.715 23.934-23.933 0-13.216-10.716-23.934-23.934-23.934z" fill="#fcb131"/></g></g><path d="m80.311 41.342c0-.427.347-.771.772-.771.428 0 .772.346.772.771 0 .428-.346.773-.772.773s-.772-.345-.772-.773zm.772.588c.323 0 .587-.264.587-.588 0-.326-.264-.587-.587-.587-.325 0-.588.261-.588.587 0 .324.263.588.588.588zm-.104-.248h-.159v-.679h.287c.061 0 .121 0 .175.032.054.038.085.104.085.171 0 .077-.044.147-.118.176l.126.3h-.176l-.104-.269h-.115v.269zm0-.386h.088c.033 0 .066.002.097-.013.026-.018.041-.049.041-.078 0-.025-.019-.057-.039-.069-.028-.017-.072-.014-.103-.014h-.084z" fill="#fcb131"/></g><g><g fill="#003473"><path d="m21.845 30.621c-.272-.031-.393-.041-.58-.041-1.473 0-2.217.506-2.217 1.504 0 .614.363 1.005.931 1.005 1.058 0 1.821-1.007 1.866-2.468zm1.89 4.399c-.347 0-2.153 0-2.153 0l.049-1.021c-.657.809-1.533 1.193-2.723 1.193-1.408 0-2.374-1.101-2.374-2.696 0-2.404 1.679-3.808 4.562-3.808.295 0 .672.027 1.059.076.081-.326.102-.465.102-.641 0-.653-.452-.898-1.666-.898-1.272-.013-2.32.304-2.751.445.027-.164.36-2.22.36-2.22 1.294-.381 2.148-.523 3.109-.523 2.231 0 3.414 1.001 3.411 2.895.004.508-.08 1.133-.21 1.958-.225 1.427-.71 4.493-.775 5.24z"/><path d="m15.447 35.02h-2.599l1.489-9.332-3.324 9.332h-1.77l-.219-9.28-1.565 9.28h-2.432l2.032-12.14h3.736l.226 6.795 2.28-6.795h4.156z"/><path d="m62.775 30.621c-.271-.031-.392-.041-.577-.041-1.474 0-2.218.506-2.218 1.504 0 .614.361 1.005.931 1.005 1.06 0 1.821-1.007 1.864-2.468zm1.893 4.399c-.348 0-2.152 0-2.152 0l.049-1.021c-.656.809-1.533 1.193-2.723 1.193-1.41 0-2.374-1.101-2.374-2.696 0-2.404 1.681-3.808 4.562-3.808.296 0 .672.027 1.06.076.08-.326.101-.465.101-.641 0-.653-.451-.898-1.664-.898-1.271-.013-2.32.304-2.752.445.027-.164.361-2.22.361-2.22 1.295-.381 2.148-.523 3.107-.523 2.232 0 3.414 1.001 3.412 2.895.004.508-.079 1.133-.211 1.958-.226 1.427-.712 4.493-.776 5.24z"/><path d="m35.282 34.87c-.711.224-1.266.319-1.867.319-1.328 0-2.053-.763-2.053-2.168-.019-.438.191-1.584.356-2.633.15-.922 1.127-6.737 1.127-6.737h2.583l-.301 1.494h1.56l-.352 2.373h-1.565c-.3 1.877-.728 4.217-.732 4.527 0 .509.271.731.89.731.296 0 .525-.03.7-.094z"/><path d="m43.201 34.79c-.888.271-1.743.403-2.65.399-2.892-.002-4.399-1.513-4.399-4.403 0-3.375 1.917-5.859 4.521-5.859 2.129 0 3.489 1.391 3.489 3.572 0 .726-.094 1.431-.318 2.428h-5.144c-.174 1.433.742 2.029 2.246 2.029.923 0 1.758-.19 2.685-.62zm-1.452-5.852c.015-.207.273-1.763-1.202-1.763-.822 0-1.411.627-1.649 1.763z"/><path d="m25.293 28.269c0 1.249.605 2.109 1.979 2.756 1.052.494 1.215.642 1.215 1.09 0 .615-.464.894-1.492.894-.776 0-1.497-.12-2.329-.391 0 0-.341 2.177-.357 2.28.59.129 1.117.248 2.704.293 2.742 0 4.008-1.045 4.008-3.301 0-1.355-.529-2.151-1.832-2.752-1.089-.498-1.215-.611-1.215-1.072 0-.533.433-.806 1.272-.806.51 0 1.207.054 1.867.147l.37-2.29c-.673-.107-1.693-.192-2.287-.192-2.906.002-3.912 1.52-3.903 3.344z"/><path d="m55.838 25.187c.723 0 1.396.188 2.322.655l.425-2.635c-.382-.15-1.721-1.027-2.854-1.027-1.738 0-3.211.863-4.244 2.287-1.508-.5-2.129.51-2.889 1.516l-.675.157c.052-.331.099-.66.083-.993h-2.388c-.325 3.056-.902 6.151-1.354 9.208l-.119.664h2.602c.434-2.818.67-4.623.814-5.847l.979-.543c.146-.545.604-.728 1.521-.705-.119.644-.185 1.321-.185 2.023 0 3.229 1.745 5.241 4.541 5.241.722 0 1.339-.096 2.298-.354l.455-2.769c-.861.425-1.566.623-2.207.623-1.51 0-2.424-1.114-2.424-2.957 0-2.671 1.357-4.544 3.299-4.544z"/><path d="m77.836 22.88-.577 3.507c-.709-.934-1.473-1.611-2.479-1.611-1.312 0-2.504.994-3.285 2.458-1.09-.226-2.213-.61-2.213-.61l-.002.01c.088-.818.125-1.316.115-1.486h-2.388c-.323 3.056-.901 6.151-1.354 9.208l-.118.664h2.6c.353-2.277.619-4.172.816-5.672.889-.804 1.334-1.501 2.229-1.457-.396.962-.63 2.068-.63 3.203 0 2.469 1.248 4.098 3.138 4.098.953 0 1.684-.33 2.396-1.09l-.123.918h2.459l1.979-12.14zm-3.249 9.859c-.885 0-1.332-.655-1.332-1.946 0-1.939.837-3.316 2.017-3.316.893 0 1.377.68 1.377 1.934-.003 1.956-.853 3.328-2.062 3.328z"/></g><g><g fill="#fff"><path d="m16.194 34.3h-2.598l1.489-9.332-3.324 9.332h-1.77l-.219-9.278-1.564 9.278h-2.433l2.032-12.14h3.736l.104 7.515 2.521-7.515h4.036z"/><path d="m22.593 29.9c-.272-.03-.393-.039-.58-.039-1.473 0-2.218.505-2.218 1.502 0 .613.364 1.007.931 1.007 1.059 0 1.822-1.009 1.867-2.47zm1.889 4.4c-.346 0-2.153 0-2.153 0l.049-1.022c-.656.809-1.533 1.193-2.723 1.193-1.408 0-2.374-1.1-2.374-2.697 0-2.403 1.679-3.806 4.562-3.806.294 0 .672.027 1.059.077.08-.326.101-.465.101-.643 0-.653-.452-.896-1.666-.896-1.272-.015-2.319.302-2.751.443.028-.164.361-2.22.361-2.22 1.294-.379 2.148-.523 3.11-.523 2.231 0 3.413 1.003 3.411 2.895.004.508-.08 1.135-.21 1.958-.225 1.427-.709 4.496-.776 5.241z"/><path d="m59.333 22.487-.426 2.635c-.929-.467-1.601-.655-2.321-.655-1.939 0-3.301 1.875-3.301 4.549 0 1.842.915 2.955 2.426 2.955.641 0 1.348-.197 2.207-.623l-.457 2.769c-.957.26-1.575.354-2.296.354-2.798 0-4.54-2.012-4.54-5.24 0-4.34 2.409-7.374 5.852-7.374 1.134-.001 2.475.481 2.856.63z"/><path d="m63.523 29.9c-.271-.03-.392-.039-.578-.039-1.473 0-2.219.505-2.219 1.502 0 .613.364 1.007.933 1.007 1.058 0 1.821-1.009 1.864-2.47zm1.892 4.4c-.347 0-2.151 0-2.151 0l.049-1.022c-.656.809-1.533 1.193-2.724 1.193-1.409 0-2.373-1.1-2.373-2.697 0-2.403 1.679-3.806 4.562-3.806.295 0 .672.027 1.059.077.08-.326.102-.465.102-.643 0-.653-.451-.896-1.666-.896-1.271-.015-2.317.302-2.75.443.027-.164.36-2.22.36-2.22 1.295-.379 2.147-.523 3.109-.523 2.231 0 3.413 1.003 3.409 2.895.007.508-.078 1.135-.209 1.958-.226 1.427-.712 4.496-.777 5.241z"/><path d="m36.03 34.148c-.711.225-1.265.322-1.866.322-1.328 0-2.054-.765-2.054-2.169-.019-.438.191-1.584.356-2.632.15-.924 1.127-6.738 1.127-6.738h2.583l-.302 1.495h1.325l-.353 2.372h-1.33c-.3 1.879-.728 4.217-.733 4.527 0 .51.272.73.89.73.296 0 .525-.029.7-.093z"/><path d="m43.949 34.07c-.887.271-1.744.4-2.65.4-2.892-.003-4.398-1.514-4.398-4.404 0-3.375 1.917-5.86 4.519-5.86 2.131 0 3.491 1.391 3.491 3.574 0 .724-.095 1.431-.318 2.428h-5.143c-.175 1.433.742 2.03 2.244 2.03.924 0 1.758-.191 2.686-.623zm-1.451-5.853c.014-.206.273-1.762-1.203-1.762-.822 0-1.411.628-1.65 1.762z"/><path d="m26.041 27.548c0 1.25.606 2.109 1.979 2.759 1.052.493 1.214.641 1.214 1.088 0 .615-.464.895-1.492.895-.775 0-1.497-.121-2.329-.389 0 0-.341 2.176-.356 2.277.59.129 1.117.248 2.704.293 2.742 0 4.008-1.044 4.008-3.3 0-1.356-.53-2.151-1.832-2.75-1.089-.502-1.214-.612-1.214-1.073 0-.534.432-.809 1.271-.809.509 0 1.207.057 1.867.15l.37-2.29c-.673-.106-1.693-.193-2.287-.193-2.906 0-3.912 1.518-3.903 3.342z"/><path d="m79.168 34.3h-2.458l.121-.919c-.713.762-1.442 1.09-2.396 1.09-1.889 0-3.138-1.627-3.138-4.097 0-3.284 1.937-6.052 4.228-6.052 1.009 0 1.771.411 2.481 1.347l.576-3.509h2.563zm-3.834-2.28c1.211 0 2.061-1.371 2.061-3.328 0-1.253-.482-1.936-1.377-1.936-1.179 0-2.015 1.376-2.015 3.317 0 1.292.448 1.947 1.331 1.947z"/><path d="m67.756 24.428c-.324 3.056-.902 6.15-1.355 9.208l-.119.664h2.599c.932-6.038 1.153-7.216 2.612-7.068.231-1.236.664-2.318.985-2.864-1.088-.227-1.695.389-2.492 1.557.063-.505.179-.996.156-1.497z"/><path d="m46.367 24.428c-.326 3.056-.905 6.15-1.356 9.208l-.118.664h2.601c.93-6.038 1.153-7.216 2.608-7.068.233-1.236.668-2.318.988-2.864-1.088-.227-1.695.389-2.492 1.557.063-.505.18-.996.155-1.497z"/></g><g><path d="m80.309 33.527c0-.43.349-.774.772-.774.428 0 .772.347.772.774 0 .425-.346.771-.772.771-.425.002-.772-.346-.772-.771zm.772.587c.325 0 .588-.265.588-.587 0-.325-.263-.59-.588-.59-.324 0-.587.265-.587.59s.263.587.587.587zm-.104-.25h-.158v-.679h.289c.06 0 .119.002.172.035.057.036.087.103.087.17 0 .075-.044.147-.117.176l.125.297h-.176l-.104-.268h-.115v.269zm0-.384h.088c.033 0 .068.002.098-.015.025-.016.039-.049.039-.077 0-.025-.016-.056-.038-.07-.026-.016-.071-.012-.101-.012h-.086z" fill="#fff"/></g></g></g></g></g></svg>